<?xml version="1.0" encoding="UTF-8"?>
<svg width="32" height="32" viewBox="0 0 32 32" fill="none" xmlns="http://www.w3.org/2000/svg" aria-labelledby="title">
  <title>SecureHub</title>
  <defs>
    <linearGradient id="g" x1="0" y1="0" x2="32" y2="32" gradientUnits="userSpaceOnUse">
      <stop offset="0%" stop-color="#73bed3"/>
      <stop offset="100%" stop-color="#2D4566"/>
    </linearGradient>
  </defs>
  <!-- Shield -->
  <path d="M16 2l10 4v7c0 7-5.2 13-10 15-4.8-2-10-8-10-15V6l10-4z" fill="url(#g)"/>
  <!-- S -->
  <path d="M20.5 12.2c0-1.9-1.6-3.1-4.2-3.1-1.8 0-3.6.6-5 1.7l1.3 1.6c1.1-.8 2.3-1.2 3.6-1.2 1.2 0 2 .4 2 .9 0 .6-.6.9-2.2 1.1-2.9.4-4.8 1.3-4.8 3.6 0 2 1.7 3.3 4.3 3.3 1.8 0 3.4-.5 4.9-1.5l-1.2-1.7c-1.1.7-2.3 1.1-3.5 1.1-1.2 0-2-.4-2-.9 0-.6.7-.9 2.3-1.1 2.9-.4 4.7-1.3 4.7-3.8z" fill="#ffffff"/>
</svg>
